<?xml version="1.0" encoding="UTF-8" standalone="yes"?>
<svg xmlns="http://www.w3.org/2000/svg" viewBox="0 0 30 30" width="480" height="480" fill="#000000">
  <path d="M24,4H6C4.895,4,4,4.895,4,6v18c0,1.105,0.895,2,2,2h18c1.105,0,2-0.895,2-2V6C26,4.895,25.104,4,24,4z M14.188,15.62 c-1.41,1.84-2.775,3.71-4.155,5.565c-0.341,0.475-0.787,0.772-1.38,0.816c-0.638-0.015-1.158-0.252-1.454-0.831 c-0.341-0.668-0.223-1.321,0.208-1.9c0.905-1.232,1.811-2.449,2.745-3.651c0.341-0.43,0.356-0.772,0-1.217 c-0.965-1.217-1.87-2.478-2.79-3.74c-0.46-0.638-0.49-1.321-0.03-1.974c0.401-0.564,0.979-0.712,1.632-0.608 c0.475,0.074,0.787,0.386,1.054,0.742c1.395,1.855,2.76,3.71,4.17,5.565C14.53,14.834,14.53,15.16,14.188,15.62z M22.751,21.186 c-0.386,0.698-0.994,0.92-1.751,0.979c-0.846-0.03-1.247-0.668-1.677-1.247c-1.247-1.677-2.404-3.428-3.74-5.016 c-0.579-0.698-0.519-1.202-0.044-1.721c1.484-1.588,2.567-3.458,3.829-5.194c0.475-0.653,1.098-1.321,2.033-1.113 c0.801,0.178,1.395,0.712,1.469,1.618c0.059,0.668-0.237,1.202-0.608,1.707c-0.801,1.083-1.603,2.152-2.449,3.191 c-0.371,0.46-0.327,0.772,0.03,1.232c0.965,1.247,1.84,2.553,2.79,3.799C23.093,20.013,23.107,20.547,22.751,21.186z"/>
</svg>
